# xmcd CD database file
#
# Track frame offsets:
#	150
#	41967
#	75655
#	99281
#	123502
#	158308
#	189213
#	211933
#	233497
#	261720
#	298139
#
# Disc length: 4339 seconds
#
# Revision: 0
# Processed by: cddbd v1.5.2PL0 Copyright (c) Steve Scherf et al.
# Submitted via: CDex 1.51
#
DISCID=9010f10b
DTITLE=Dexter Gordon - 60's Blue Note Sessions [CD1]
DYEAR=1900
DGENRE=Jazz
TTITLE0=I Was Doing Allright
TTITLE1=You've Changed
TTITLE2=Landslide
TTITLE3=Modal Mood
TTITLE4=Soul Sister
TTITLE5=The End of a Love Affair
TTITLE6=Serenade in Blue
TTITLE7=Love Locked Out
TTITLE8=Six Bits Jones
TTITLE9=Lady Be Good
TTITLE10=Don't Explain
EXTD=
EXTT0=
EXTT1=
EXTT2=
EXTT3=
EXTT4=
EXTT5=
EXTT6=
EXTT7=
EXTT8=
EXTT9=
EXTT10=
PLAYORDER=
